HIERARCHY
ROOT Root
{
	OFFSET 0.00000 0.00000 0.00000
	CHANNELS 6 Xposition Yposition Zposition Zrotation Xrotation Yrotation
	JOINT Hips
	{
		OFFSET 0 0 0	
		CHANNELS 3 Zrotation Xrotation Yrotation
		JOINT Spine
		{
			OFFSET 0 4 0	
			CHANNELS 3 Zrotation Xrotation Yrotation
			JOINT Spine1
			{
				OFFSET 0 19.4 0	
				CHANNELS 3 Zrotation Xrotation Yrotation
				JOINT Spine2
				{
					OFFSET 0 16.6 0	
					CHANNELS 3 Zrotation Xrotation Yrotation
					JOINT LeftCollar
					{
						OFFSET 0 10 0	
						CHANNELS 3 Zrotation Xrotation Yrotation
						JOINT LeftArm
						{
							OFFSET 15.6 -2 3	
							CHANNELS 3 Zrotation Xrotation Yrotation
							JOINT LeftForeArm
							{
								OFFSET 3.5 -27 -1	
								CHANNELS 3 Zrotation Xrotation Yrotation
								JOINT LeftHand
								{
									OFFSET 1 -27 1	
									CHANNELS 3 Zrotation Xrotation Yrotation
									End Site
									{
										OFFSET 0 -15 0
									}
								}
							}
						}
					}
					JOINT RightCollar
					{
						OFFSET 0 10 0	
						CHANNELS 3 Zrotation Xrotation Yrotation
						JOINT RightArm
						{
							OFFSET -15.6 -2 3	
							CHANNELS 3 Zrotation Xrotation Yrotation
							JOINT RightForeArm
							{
								OFFSET -3.5 -27 -1	
								CHANNELS 3 Zrotation Xrotation Yrotation
								JOINT RightHand
								{
									OFFSET -1 -27 1	
									CHANNELS 3 Zrotation Xrotation Yrotation
									End Site
									{
										OFFSET 0 -15 0
									}
								}
							}
						}
					}
					JOINT Neck
					{
						OFFSET 0 10 0	
						CHANNELS 3 Zrotation Xrotation Yrotation
						JOINT Head
						{
							OFFSET 0 12.7 3	
							CHANNELS 3 Zrotation Xrotation Yrotation
							End Site
							{
								OFFSET 0 12.7 3
							}
						}
					}
				}
			}
		}
	}
	JOINT LeftHip
	{
		OFFSET 0 0 0	
		CHANNELS 3 Zrotation Xrotation Yrotation
		JOINT LeftUpLeg
		{
			OFFSET 8.8 -6 0	
			CHANNELS 3 Zrotation Xrotation Yrotation
			JOINT LeftLeg
			{
				OFFSET 0 -39 2	
				CHANNELS 3 Zrotation Xrotation Yrotation
				JOINT LeftFoot
				{
					OFFSET 0 -43 -2	
					CHANNELS 3 Zrotation Xrotation Yrotation
					JOINT LeftFootFront
					{
						OFFSET 0 -7 8.5	
						CHANNELS 3 Zrotation Xrotation Yrotation
						End Site
						{
							OFFSET 0 -0.5 9
						}
					}
				}
				JOINT LeftHeel
				{
					OFFSET 0 -43 -2	
					CHANNELS 3 Zrotation Xrotation Yrotation
					End Site
					{
						OFFSET 0 -7.5 -5
					}
				}
			}
		}
	}
	JOINT RightHip
	{
		OFFSET 0 0 0	
		CHANNELS 3 Zrotation Xrotation Yrotation
		JOINT RightUpLeg
		{
			OFFSET -8.8 -6 0	
			CHANNELS 3 Zrotation Xrotation Yrotation
			JOINT RightLeg
			{
				OFFSET 0 -39 2	
				CHANNELS 3 Zrotation Xrotation Yrotation
				JOINT RightFoot
				{
					OFFSET 0 -43 -2	
					CHANNELS 3 Zrotation Xrotation Yrotation
					JOINT RightFootFront
					{
						OFFSET 0 -7 8.5	
						CHANNELS 3 Zrotation Xrotation Yrotation
						End Site
						{
							OFFSET 0 -0.5 9
						}
					}
				}
				JOINT RightHeel
				{
					OFFSET 0 -43 -2	
					CHANNELS 3 Zrotation Xrotation Yrotation
					End Site
					{
						OFFSET 0 -7.5 -5
					}
				}
			}
		}
	}
}
MOTION
Frames: 24
Frame Time: 0.05
0 95.5 0 -0 0 -0 -0 0 -0 -0 0 -0 2.006 14.03 -15.101 -0 0 -0 -0 0 -0 12.488 -25.991 30.973 -94.12 -3.5002 -98.643 -0 0 -0 -0 0 -0 -4.1476 -32.75 18.901 -74.075 -37.72 -60.305 -0 0 -0 -4.3731 -18.449 1.7314 -4.3731 -18.449 1.7314 -0 0 -0 -0 0 -0 -0 0 -0 -0 0 -0 -0 0 -0 -0 0 -0 -0 0 -0 -0 0 -0 -0 0 -0 -0 0 -0 -0 0 -0 -0 0 -0 
0 95.5 0 -0 0 -0 -0 0 -0 -0 0 -0 1.963 13.999 -15.038 -0 0 -0 -0 0 -0 12.564 -26.008 30.944 -94.163 -3.5171 -98.567 -0 0 -0 -0 0 -0 -4.1471 -32.754 18.928 -74.078 -37.612 -60.351 -0 0 -0 -4.3075 -18.167 1.9936 -4.3075 -18.167 1.9936 -0 0 -0 -0 0 -0 -0 0 -0 -0 0 -0 -0 0 -0 -0 0 -0 -0 0 -0 -0 0 -0 -0 0 -0 -0 0 -0 -0 0 -0 -0 0 -0 
0 95.5 0 -0 0 -0 -0 0 -0 -0 0 -0 1.8898 14.034 -14.993 -0 0 -0 -0 0 -0 12.678 -26.057 30.931 -94.201 -3.5463 -98.512 -0 0 -0 -0 0 -0 -4.0652 -32.831 18.947 -74.165 -37.537 -60.458 -0 0 -0 -4.0154 -17.669 2.5276 -4.0154 -17.669 2.5276 -0 0 -0 -0 0 -0 -0 0 -0 -0 0 -0 -0 0 -0 -0 0 -0 -0 0 -0 -0 0 -0 -0 0 -0 -0 0 -0 -0 0 -0 -0 0 -0 
0 95.5 0 -0 0 -0 -0 0 -0 -0 0 -0 1.862 14.018 -15.069 -0 0 -0 -0 0 -0 12.745 -26.031 31 -94.218 -3.5801 -98.482 -0 0 -0 -0 0 -0 -3.9209 -32.833 19.049 -74.418 -37.562 -60.696 -0 0 -0 -3.5596 -16.903 3.2418 -3.5596 -16.903 3.2418 -0 0 -0 -0 0 -0 -0 0 -0 -0 0 -0 -0 0 -0 -0 0 -0 -0 0 -0 -0 0 -0 -0 0 -0 -0 0 -0 -0 0 -0 -0 0 -0 
0 95.5 0 -0 0 -0 -0 0 -0 -0 0 -0 1.838 13.972 -15.126 -0 0 -0 -0 0 -0 12.759 -26.011 31.042 -94.175 -3.5865 -98.436 -0 0 -0 -0 0 -0 -3.8032 -32.727 19.124 -74.753 -37.643 -61.074 -0 0 -0 -3.1614 -16.117 3.8142 -3.1614 -16.117 3.8142 -0 0 -0 -0 0 -0 -0 0 -0 -0 0 -0 -0 0 -0 -0 0 -0 -0 0 -0 -0 0 -0 -0 0 -0 -0 0 -0 -0 0 -0 -0 0 -0 
0 95.5 0 -0 0 -0 -0 0 -0 -0 0 -0 1.9067 13.954 -15.128 -0 0 -0 -0 0 -0 12.665 -26.103 31.013 -94.097 -3.5805 -98.354 -0 0 -0 -0 0 -0 -3.8081 -32.557 19.207 -75.097 -37.666 -61.594 -0 0 -0 -2.9896 -15.606 4.1532 -2.9896 -15.606 4.1532 -0 0 -0 -0 0 -0 -0 0 -0 -0 0 -0 -0 0 -0 -0 0 -0 -0 0 -0 -0 0 -0 -0 0 -0 -0 0 -0 -0 0 -0 -0 0 -0 
0 95.5 0 -0 0 -0 -0 0 -0 -0 0 -0 2.0723 14.063 -15.112 -0 0 -0 -0 0 -0 12.525 -26.303 30.959 -94.081 -3.5937 -98.308 -0 0 -0 -0 0 -0 -3.9554 -32.469 19.234 -75.364 -37.677 -62.169 -0 0 -0 -3.0078 -15.347 4.3417 -3.0078 -15.347 4.3417 -0 0 -0 -0 0 -0 -0 0 -0 -0 0 -0 -0 0 -0 -0 0 -0 -0 0 -0 -0 0 -0 -0 0 -0 -0 0 -0 -0 0 -0 -0 0 -0 
0 95.5 0 -0 0 -0 -0 0 -0 -0 0 -0 2.2569 14.216 -15.13 -0 0 -0 -0 0 -0 12.426 -26.446 30.988 -94.127 -3.5744 -98.292 -0 0 -0 -0 0 -0 -4.1221 -32.43 19.205 -75.516 -37.77 -62.658 -0 0 -0 -3.0976 -15.183 4.511 -3.0976 -15.183 4.511 -0 0 -0 -0 0 -0 -0 0 -0 -0 0 -0 -0 0 -0 -0 0 -0 -0 0 -0 -0 0 -0 -0 0 -0 -0 0 -0 -0 0 -0 -0 0 -0 
0 95.5 0 -0 0 -0 -0 0 -0 -0 0 -0 2.3675 14.328 -15.141 -0 0 -0 -0 0 -0 12.438 -26.476 31.139 -94.187 -3.4469 -98.285 -0 0 -0 -0 0 -0 -4.4313 -32.12 19.14 -75.661 -37.876 -63.462 -0 0 -0 -3.1707 -15.081 4.6824 -3.1707 -15.081 4.6824 -0 0 -0 -0 0 -0 -0 0 -0 -0 0 -0 -0 0 -0 -0 0 -0 -0 0 -0 -0 0 -0 -0 0 -0 -0 0 -0 -0 0 -0 -0 0 -0 
0 95.5 0 -0 0 -0 -0 0 -0 -0 0 -0 2.3835 14.499 -15.103 -0 0 -0 -0 0 -0 12.552 -26.473 31.329 -94.291 -3.2597 -98.308 -0 0 -0 -0 0 -0 -4.5795 -32.036 19.096 -75.616 -37.898 -64.061 -0 0 -0 -3.18 -15.03 4.8086 -3.18 -15.03 4.8086 -0 0 -0 -0 0 -0 -0 0 -0 -0 0 -0 -0 0 -0 -0 0 -0 -0 0 -0 -0 0 -0 -0 0 -0 -0 0 -0 -0 0 -0 -0 0 -0 
0 95.5 0 -0 0 -0 -0 0 -0 -0 0 -0 2.4652 14.809 -15.123 -0 0 -0 -0 0 -0 12.664 -26.518 31.58 -94.415 -3.0803 -98.416 -0 0 -0 -0 0 -0 -4.649 -32.113 19.038 -75.717 -38.007 -64.706 -0 0 -0 -3.1651 -15.045 4.9067 -3.1651 -15.045 4.9067 -0 0 -0 -0 0 -0 -0 0 -0 -0 0 -0 -0 0 -0 -0 0 -0 -0 0 -0 -0 0 -0 -0 0 -0 -0 0 -0 -0 0 -0 -0 0 -0 
0 95.5 0 -0 0 -0 -0 0 -0 -0 0 -0 2.5959 15.087 -15.18 -0 0 -0 -0 0 -0 12.759 -26.527 31.902 -94.517 -2.8467 -98.548 -0 0 -0 -0 0 -0 -4.7469 -32.117 18.945 -76.037 -38.225 -65.627 -0 0 -0 -3.1475 -15.153 4.9454 -3.1475 -15.153 4.9454 -0 0 -0 -0 0 -0 -0 0 -0 -0 0 -0 -0 0 -0 -0 0 -0 -0 0 -0 -0 0 -0 -0 0 -0 -0 0 -0 -0 0 -0 -0 0 -0 
0 95.5 0 -0 0 -0 -0 0 -0 -0 0 -0 2.7413 15.341 -15.219 -0 0 -0 -0 0 -0 12.866 -26.56 32.319 -94.623 -2.4996 -98.647 -0 0 -0 -0 0 -0 -4.9765 -31.967 18.808 -76.556 -38.436 -66.984 -0 0 -0 -3.1854 -15.789 4.7841 -3.1854 -15.789 4.7841 -0 0 -0 -0 0 -0 -0 0 -0 -0 0 -0 -0 0 -0 -0 0 -0 -0 0 -0 -0 0 -0 -0 0 -0 -0 0 -0 -0 0 -0 -0 0 -0 
0 95.5 0 -0 0 -0 -0 0 -0 -0 0 -0 2.9638 15.714 -15.25 -0 0 -0 -0 0 -0 12.937 -26.674 32.761 -94.792 -2.1244 -98.79 -0 0 -0 -0 0 -0 -5.3762 -31.913 18.622 -76.733 -38.695 -68.182 -0 0 -0 -3.4385 -17.333 4.2617 -3.4385 -17.333 4.2617 -0 0 -0 -0 0 -0 -0 0 -0 -0 0 -0 -0 0 -0 -0 0 -0 -0 0 -0 -0 0 -0 -0 0 -0 -0 0 -0 -0 0 -0 -0 0 -0 
0 95.5 0 -0 0 -0 -0 0 -0 -0 0 -0 3.226 16.201 -15.295 -0 0 -0 -0 0 -0 12.98 -26.762 33.223 -95.048 -1.7303 -99.039 -0 0 -0 -0 0 -0 -5.9277 -32.05 18.389 -76.412 -39.026 -68.933 -0 0 -0 -3.8206 -19.315 3.469 -3.8206 -19.315 3.469 -0 0 -0 -0 0 -0 -0 0 -0 -0 0 -0 -0 0 -0 -0 0 -0 -0 0 -0 -0 0 -0 -0 0 -0 -0 0 -0 -0 0 -0 -0 0 -0 
0 95.5 0 -0 0 -0 -0 0 -0 -0 0 -0 3.391 16.685 -15.319 -0 0 -0 -0 0 -0 13.035 -26.661 33.674 -95.38 -1.2913 -99.431 -0 0 -0 -0 0 -0 -6.5289 -32.225 18.071 -75.906 -39.427 -69.53 -0 0 -0 -4.1627 -21.105 2.6218 -4.1627 -21.105 2.6218 -0 0 -0 -0 0 -0 -0 0 -0 -0 0 -0 -0 0 -0 -0 0 -0 -0 0 -0 -0 0 -0 -0 0 -0 -0 0 -0 -0 0 -0 -0 0 -0 
0 95.5 0 -0 0 -0 -0 0 -0 -0 0 -0 3.4361 17.062 -15.398 -0 0 -0 -0 0 -0 13.176 -26.254 34.152 -95.776 -0.84356 -99.952 -0 0 -0 -0 0 -0 -6.9886 -32.271 17.842 -75.603 -39.851 -70.165 -0 0 -0 -4.3364 -22.453 1.9756 -4.3364 -22.453 1.9756 -0 0 -0 -0 0 -0 -0 0 -0 -0 0 -0 -0 0 -0 -0 0 -0 -0 0 -0 -0 0 -0 -0 0 -0 -0 0 -0 -0 0 -0 -0 0 -0 
0 95.5 0 -0 0 -0 -0 0 -0 -0 0 -0 3.5783 17.612 -15.702 -0 0 -0 -0 0 -0 13.419 -25.913 34.805 -96.14 -0.46217 -100.5 -0 0 -0 -0 0 -0 -7.2327 -32.555 17.847 -75.58 -40.273 -70.774 -0 0 -0 -4.3663 -23.486 1.6241 -4.3663 -23.486 1.6241 -0 0 -0 -0 0 -0 -0 0 -0 -0 0 -0 -0 0 -0 -0 0 -0 -0 0 -0 -0 0 -0 -0 0 -0 -0 0 -0 -0 0 -0 -0 0 -0 
0 95.5 0 -0 0 -0 -0 0 -0 -0 0 -0 3.6844 17.858 -15.848 -0 0 -0 -0 0 -0 13.509 -25.261 35.087 -96.466 -0.19365 -101.07 -0 0 -0 -0 0 -0 -7.3814 -32.543 17.794 -75.877 -40.639 -71.362 -0 0 -0 -4.4048 -24.053 1.3741 -4.4048 -24.053 1.3741 -0 0 -0 -0 0 -0 -0 0 -0 -0 0 -0 -0 0 -0 -0 0 -0 -0 0 -0 -0 0 -0 -0 0 -0 -0 0 -0 -0 0 -0 -0 0 -0 
0 95.5 0 -0 0 -0 -0 0 -0 -0 0 -0 3.8196 18.006 -15.974 -0 0 -0 -0 0 -0 13.555 -24.604 35.259 -96.794 0.0014002 -101.6 -0 0 -0 -0 0 -0 -7.4918 -32.39 17.748 -76.432 -40.957 -72.052 -0 0 -0 -4.5119 -24.535 1.1028 -4.5119 -24.535 1.1028 -0 0 -0 -0 0 -0 -0 0 -0 -0 0 -0 -0 0 -0 -0 0 -0 -0 0 -0 -0 0 -0 -0 0 -0 -0 0 -0 -0 0 -0 -0 0 -0 
0 95.5 0 -0 0 -0 -0 0 -0 -0 0 -0 4.0364 18.145 -16.086 -0 0 -0 -0 0 -0 13.51 -24.092 35.42 -97.066 0.19637 -102.01 -0 0 -0 -0 0 -0 -7.6628 -32.219 17.663 -76.985 -41.232 -72.73 -0 0 -0 -4.6256 -24.728 1.0147 -4.6256 -24.728 1.0147 -0 0 -0 -0 0 -0 -0 0 -0 -0 0 -0 -0 0 -0 -0 0 -0 -0 0 -0 -0 0 -0 -0 0 -0 -0 0 -0 -0 0 -0 -0 0 -0 
0 95.5 0 -0 0 -0 -0 0 -0 -0 0 -0 4.2431 18.293 -16.156 -0 0 -0 -0 0 -0 13.404 -23.698 35.561 -97.261 0.40511 -102.37 -0 0 -0 -0 0 -0 -7.8508 -32.105 17.538 -77.335 -41.475 -73.247 -0 0 -0 -4.7468 -24.879 0.9114 -4.7468 -24.879 0.9114 -0 0 -0 -0 0 -0 -0 0 -0 -0 0 -0 -0 0 -0 -0 0 -0 -0 0 -0 -0 0 -0 -0 0 -0 -0 0 -0 -0 0 -0 -0 0 -0 
0 95.5 0 -0 0 -0 -0 0 -0 -0 0 -0 4.413 18.441 -16.193 -0 0 -0 -0 0 -0 13.293 -23.376 35.663 -97.357 0.58476 -102.7 -0 0 -0 -0 0 -0 -8.0649 -32.06 17.395 -77.406 -41.665 -73.56 -0 0 -0 -4.8514 -25.013 0.7616 -4.8514 -25.013 0.7616 -0 0 -0 -0 0 -0 -0 0 -0 -0 0 -0 -0 0 -0 -0 0 -0 -0 0 -0 -0 0 -0 -0 0 -0 -0 0 -0 -0 0 -0 -0 0 -0 
0 95.5 0 -0 0 -0 -0 0 -0 -0 0 -0 4.5283 18.549 -16.239 -0 0 -0 -0 0 -0 13.221 -23.057 35.773 -97.41 0.74461 -102.99 -0 0 -0 -0 0 -0 -8.2254 -32.134 17.446 -77.027 -41.564 -73.577 -0 0 -0 -4.9452 -25.151 0.58225 -4.9452 -25.151 0.58225 -0 0 -0 -0 0 -0 -0 0 -0 -0 0 -0 -0 0 -0 -0 0 -0 -0 0 -0 -0 0 -0 -0 0 -0 -0 0 -0 -0 0 -0 -0 0 -0 
